<svg width="200" height="60" viewBox="0 0 200 60" fill="none" xmlns="http://www.w3.org/2000/svg">
  <defs>
    <linearGradient id="brainGradient" x1="0%" y1="0%" x2="100%" y2="100%">
      <stop offset="0%" style="stop-color:#1E40AF;stop-opacity:1" />
      <stop offset="50%" style="stop-color:#3B82F6;stop-opacity:1" />
      <stop offset="100%" style="stop-color:#60A5FA;stop-opacity:1" />
    </linearGradient>
  </defs>
  
  <!-- Brain Icon -->
  <g transform="translate(10, 10)">
    <path d="M20 5C15 5 12 8 12 12C12 14 13 16 15 17C13 18 12 20 12 22C12 26 15 29 20 29C25 29 28 26 28 22C28 20 27 18 25 17C27 16 28 14 28 12C28 8 25 5 20 5Z" fill="url(#brainGradient)"/>
    <circle cx="16" cy="12" r="2" fill="#FFFFFF" opacity="0.8"/>
    <circle cx="24" cy="12" r="2" fill="#FFFFFF" opacity="0.8"/>
    <path d="M18 20C18 20 20 22 22 20" stroke="#FFFFFF" stroke-width="1.5" stroke-linecap="round" opacity="0.8"/>
    
    <!-- Neural connections -->
    <circle cx="14" cy="15" r="1" fill="#FFFFFF" opacity="0.6"/>
    <circle cx="26" cy="15" r="1" fill="#FFFFFF" opacity="0.6"/>
    <circle cx="20" cy="25" r="1" fill="#FFFFFF" opacity="0.6"/>
    
    <line x1="14" y1="15" x2="20" y2="25" stroke="#FFFFFF" stroke-width="0.5" opacity="0.4"/>
    <line x1="26" y1="15" x2="20" y2="25" stroke="#FFFFFF" stroke-width="0.5" opacity="0.4"/>
    <line x1="16" y1="12" x2="14" y2="15" stroke="#FFFFFF" stroke-width="0.5" opacity="0.4"/>
    <line x1="24" y1="12" x2="26" y2="15" stroke="#FFFFFF" stroke-width="0.5" opacity="0.4"/>
  </g>
  
  <!-- Text -->
  <text x="55" y="25" font-family="Arial, sans-serif" font-size="18" font-weight="bold" fill="#1E40AF">NEURO</text>
  <text x="55" y="45" font-family="Arial, sans-serif" font-size="18" font-weight="bold" fill="#3B82F6">FLOW</text>
</svg>